# xmcd
#
# Track frame offsets: 
#        150
#        11862
#        57362
#        70675
#        103225
#        126527
#        141467
#        153890
#        167610
#        180935
#        193237
#        213250
#        232805
#        261617
#        276480
#        288850
#
# Disc length: 4162 seconds
#
# Revision: 4
# Processed by: cddbd v1.5.2PL0 Copyright (c) Steve Scherf et al.
# Submitted via: ExactAudioCopy v0.99pb5
#
DISCID=f6104010
DTITLE=Various Artist - Blues Guitar Box [Dis3]
DYEAR=1991
DGENRE=Blues
TTITLE0=Clarence 'Gatemouth' Brown - Okie Dokie Stomp
TTITLE1=Albert King - Roadhouse Blues
TTITLE2=Fleetwood Mac - Shake Your Moneymaker
TTITLE3=Freddie King - Pulpwood
TTITLE4=Magic Slim and The Teardrops - Cummings Prison Farm
TTITLE5=Champion Jack Dupree - Third Degree
TTITLE6=Howlin' Wolf - I Better Go Now
TTITLE7=Guitar Slim - The Story Of My Life
TTITLE8=John Mayalls Bluesbreakers - The Super-Natural
TTITLE9=Ike Turner - Twisting The Strings
TTITLE10=Tinsley Ellis - Born In Georgia
TTITLE11=Jimmy Rogers - Brown Skinned Woman
TTITLE12=Roy Buchanan - Drowning On Dry Land
TTITLE13=Lafayette Thomas - Standing In The Back Door Crying
TTITLE14=Pee Wee Crayton - Texas Hop
TTITLE15=Guitar Shorty - You Give Me The Blues Baby
EXTD=
EXTT0=
EXTT1=
EXTT2=
EXTT3=
EXTT4=
EXTT5=
EXTT6=
EXTT7=
EXTT8=
EXTT9=
EXTT10=
EXTT11=
EXTT12=
EXTT13=
EXTT14=
EXTT15=
PLAYORDER=
